<?xml version="1.0" encoding="utf-8"?>
<!-- Generator: Adobe Illustrator 23.0.3, SVG Export Plug-In . SVG Version: 6.00 Build 0)  -->
<svg version="1.2" baseProfile="tiny" id="Layer_1" xmlns="http://www.w3.org/2000/svg" xmlns:xlink="http://www.w3.org/1999/xlink"
	 x="0px" y="0px" viewBox="0 0 500 500" xml:space="preserve">
<rect x="-0.5" y="-0.5" fill="#222222" stroke="#000000" stroke-miterlimit="10" width="500" height="500"/>
<g>
	<path fill="#71DB77" d="M344.9,141.3L277.5,89c-4.2-3.3-10.4-5.2-16.5-5.2c-3.4,0-6.6,0.6-9.3,1.7l-79,32.3
		c-7.9,3.3-14.8,12.1-16,20.7l-11.5,84.6c-1.2,8.5,3.1,18.9,9.9,24.2l67.5,52.3c4.2,3.3,10.4,5.2,16.5,5.2c3.4,0,6.6-0.6,9.3-1.7
		l79-32.3c7.9-3.3,14.8-12.1,16-20.7l11.5-84.6C356,157,351.7,146.6,344.9,141.3z M270.6,161.1l-8.5,62.7l-49.6-38.8l50.2-20.6
		L270.6,161.1z M178.4,131.9l79-32.3c0.9-0.4,2.2-0.6,3.6-0.6c2.8,0,5.7,0.8,7.3,2.1l9.9,7.6l-4.6,34.8l-108.2,44.3l6.4-47.3
		C172.1,137.4,175.4,133.1,178.4,131.9z M242.6,289.1c-0.9,0.4-2.2,0.6-3.6,0.6c-2.8,0-5.7-0.8-7.3-2.1l-67.5-52.3
		c-2.5-2-4.6-7-4.1-10.1l2.7-20l32.9-13.5l66.9,51.9L294,268L242.6,289.1z M339.8,163.4l-11.5,84.6c-0.4,3.2-3.7,7.5-6.7,8.7
		l-11.4,4.7l-33.4-26.2l15.2-115.8l43.7,33.9C338.2,155.3,340.2,160.3,339.8,163.4z"/>
</g>
<path fill="#71DB77" d="M183.9,348.1L183.9,348.1L183.9,348.1c0,1.5-0.2,2.4-0.6,2.9l0,0l0,0c-0.4,0.4-1,0.7-1.9,0.7l0,0l-0.6-0.3
	l-0.7-0.5l-0.8-0.4l0,0c-0.8-0.4-2.2-1-4.4-1.8l0,0l0,0c-2.2-0.8-4.2-1.1-6.1-1.1l0,0l0,0c-1.9,0-3.2,0.7-4.1,2l0,0l0,0
	c-0.9,1.4-1.3,4.1-1.3,8.3l0,0l0,0c0,1.2,0.4,2.2,1.1,2.9l0,0l0,0c0.7,0.7,1.8,1.1,3.1,1.1l0,0l0,0c1.3,0,2.8-0.5,4.3-1.4l0,0l0,0
	c1.6-0.9,2.7-1.4,3.4-1.4l0,0l0,0c0.7,0,1.3,0.4,1.8,1.3l0,0l0,0c0.5,0.9,0.8,1.9,0.8,3.1l0,0l0,0c0,3.3-0.4,5.3-1.1,6.1l0,0
	l-0.9,0.5l0,0c-1.3,0-2.3-0.3-3.1-0.9l0,0l0,0c-1.7-1.3-2.9-1.9-3.7-1.9l0,0l0,0c-2.5,0-4.2,0.5-5,1.6l0,0l0,0
	c-0.4,0.5-0.6,2.3-0.6,5.4l0,0l0,0c0,3.1,0.6,5.4,1.9,7l0,0l0,0c0.7,0.9,2.1,1.3,4.3,1.3l0,0l0,0c2.2,0,5.1-0.8,8.5-2.3l0,0l0,0
	c3.5-1.5,5.4-2.3,5.9-2.3l0,0l0,0c0.9,0,1.4,0.9,1.4,2.6l0,0v1.2l0,0c0,0.6-0.2,1.5-0.7,2.5l0,0l0,0c-0.4,1.1-1.1,1.9-2,2.6l0,0l0,0
	c-0.9,0.6-2.4,0.9-4.5,0.9l0,0h-23.7l0,0c-3.6,0-5.4-0.5-5.4-1.4l0,0v-1l0,0c0-0.7,0.7-1.5,2-2.2l0,0l0,0c1.3-0.7,2.1-1.5,2.4-2.4
	l0,0l0,0c0.2-0.9,0.3-5.9,0.3-15l0,0l0,0c0-9.2-0.2-14.4-0.5-15.6l0,0l0,0c-0.3-1.2-1.1-2.3-2.3-3.4l0,0l0,0c-1.2-1-1.8-2-1.8-3l0,0
	l0,0c0-0.7,0.8-1.1,2.4-1.2l0,0l0,0c1.6-0.1,6.7-0.1,15.5-0.1l0,0l8.5,0h1.4l0,0c2.2,0,3.7,0.3,4.6,0.9l0,0l0,0
	C183.2,344.3,183.9,345.9,183.9,348.1z M246.4,384.8L246.4,384.8L246.4,384.8c0,2-2.9,3-8.7,3l0,0l0,0c-1.9,0-3.2-0.2-3.9-0.7l0,0
	l0,0c-0.7-0.4-1.1-1.2-1.1-2.3l0,0l0.4-2.1l0,0c0.4-2.2,0.6-5.6,0.6-10.1l0,0l0,0c0-4.5-0.4-7.5-1.2-9l0,0l0,0
	c-0.8-1.5-2.3-2.2-4.5-2.2l0,0l0,0c-0.8,0-1.6,0.3-2.5,0.9l0,0l0,0c-0.9,0.6-1.6,1.4-2,2.4l0,0l0,0c-0.4,1-0.7,3.7-0.7,7.9l0,0l0,0
	c0,4.3,0.1,6.8,0.4,7.6l0,0l0,0c0.2,0.8,0.8,1.8,1.7,2.9l0,0l0,0c0.9,1.1,1.3,2,1.3,2.7l0,0l0,0c0,0.6-0.4,1.1-1.3,1.4l0,0l0,0
	c-0.8,0.3-3,0.4-6.6,0.4l0,0l0,0c-3.6,0-5.6-0.2-6.2-0.6l0,0l0,0c-0.6-0.4-0.8-1-0.8-2l0,0l0,0c0-0.3,0.4-1,1.1-1.9l0,0l0,0
	c0.7-1,1.2-1.8,1.4-2.6l0,0l0,0c0.2-0.8,0.3-3.3,0.3-7.6l0,0l0,0c0-4.3-0.3-7.2-1-8.9l0,0l0,0c-0.7-1.7-2-2.5-3.8-2.5l0,0l0,0
	c-1.9,0-3.4,0.8-4.7,2.5l0,0l0,0c-0.9,1.2-1.3,2.8-1.3,4.9l0,0l0,0c0,2.1,0.1,4.5,0.3,7.3l0,0l0,0c0.2,2.8,0.4,4.7,0.7,5.9l0,0l0,0
	c0.2,1.1,0.4,2.1,0.4,2.9l0,0l0,0c0,0.8-0.4,1.4-1.1,1.8l0,0l0,0c-0.7,0.4-2.4,0.6-5,0.6l0,0l0,0c-5.1,0-7.6-0.9-7.6-2.8l0,0l0,0
	c0-0.6,0.5-1.4,1.5-2.5l0,0l0,0c1-1.1,1.5-1.9,1.7-2.4l0,0l0,0c0.1-0.5,0.2-2.9,0.2-7.2l0,0l0,0c0-4.3-0.3-7.3-0.9-8.9l0,0l0,0
	c-0.1-0.4-0.6-1.2-1.3-2.3l0,0l0,0c-0.7-1.1-1.1-2-1.1-2.6l0,0l0,0c0-0.8,0.7-1.4,2.1-1.9l0,0l0,0c2.5-0.7,4.7-1.1,6.6-1.1l0,0l0,0
	c0.6,0,1.4,0.5,2.3,1.4l0,0l0,0c0.9,0.9,1.5,1.4,1.7,1.4l0,0l1-0.6l0,0c1.3-0.7,2.1-1.2,2.5-1.4l0,0l0,0c2-0.9,3.9-1.4,5.7-1.4l0,0
	l0,0c1.8,0,3.1,0.2,4,0.6l0,0l0,0c0.9,0.4,1.8,1,2.8,1.7l0,0l0,0c1,0.7,1.8,1.1,2.3,1.1l0,0l0,0c0.5,0,1.9-0.5,4.2-1.6l0,0l0,0
	c2.3-1.1,4.5-1.6,6.5-1.6l0,0l0,0c3.6,0,6.3,1.6,8,4.8l0,0l0,0c1.1,2.1,1.7,7.6,1.7,16.6l0,0l0,0c0,2.3,0.1,3.7,0.4,4.2l0,0l0,0
	c0.2,0.5,0.9,1.1,1.9,1.8l0,0l0,0C245.9,383.9,246.4,384.4,246.4,384.8z M262.2,378.3L262.2,378.3L262.2,378.3
	c0,1.9,0.4,3.3,1.3,4.3l0,0l0,0c0.9,1,2.1,1.6,3.6,1.6l0,0h1.5l0,0c1.7,0,3.2-1,4.5-3.1l0,0l0,0c1.3-2,1.9-4.6,1.9-7.5l0,0v-2.2l0,0
	c0-3.3-0.7-6-2-8l0,0l0,0c-1.3-2-2.9-3-4.9-3l0,0h-0.6l0,0c-2.2,0-3.6,0.7-4.5,2.2l0,0l0,0c-0.8,1.5-1.2,4.6-1.2,9.2l0,0v0.6l0,0.3
	v1.6l0,0.3l0,0c0,0.2,0,0.4,0,0.7l0,0l0.1,2.2l0,0C262.2,377.9,262.2,378.1,262.2,378.3z M256.4,387.5L256.4,387.5L256.4,387.5
	c-1.6,0-2.6-0.3-3.2-0.8l0,0l0,0c-0.5-0.6-0.8-1.2-0.8-2l0,0l0,0c0-0.8,0.2-2.5,0.6-5.1l0,0l0,0c0.4-2.6,0.6-4.4,0.6-5.4l0,0l0-0.8
	v-3.2l0-1.6v-5.7l0,0c0-8.4-0.1-13.3-0.3-14.5l0,0l0,0c-0.2-1.2-0.8-2.2-1.6-2.8l0,0l0,0c-1.5-1.2-2.2-2-2.2-2.4l0,0l0,0
	c0-0.9,0.9-1.6,2.6-2.1l0,0l0,0c2.5-0.7,4.6-1,6.1-1l0,0h0.8l0,0c1.6,0,2.6,0.6,2.9,1.9l0,0l0,0c0.2,0.9,0.3,3.4,0.3,7.6l0,0l0,0
	c0,4.2,0.1,6.5,0.2,7l0,0l0,0c0.2,0.8,0.7,1.1,1.7,1.1l0,0l0,0c0,0,0.3-0.1,0.9-0.3l0,0l0,0c2.6-0.9,4.8-1.4,6.6-1.4l0,0l0,0
	c3.9,0,7.1,1.5,9.4,4.4l0,0l0,0c2.3,2.9,3.5,6.5,3.5,10.6l0,0v0.8l0,0c0,2.2-0.5,4.4-1.4,6.5l0,0l0,0c-1.8,4.2-4.6,7-8.4,8.5l0,0
	l0,0c-2.1,0.8-4.1,1.2-6.1,1.2l0,0H268l0,0c-0.7,0-1.7-0.1-3-0.4l0,0l0,0c-1.3-0.3-2.7-0.4-4.1-0.4l0,0l-0.7-0.1l0,0
	c-0.7-0.1-1.2-0.1-1.5-0.1l0,0l-0.8,0l0,0C257.2,387.5,256.7,387.5,256.4,387.5z M305.6,359.9L305.6,359.9h-0.9l0,0
	c-1.4,0-2.7,0.7-3.9,2.1l0,0l0,0c-1.3,1.4-1.9,3.1-1.9,5.1l0,0v0.5l0,0c0,0.8,0.4,1.2,1.3,1.2l0,0l0.3,0.1h2.3l0.2,0l5.5-0.3l0,0
	c0.3-0.1,0.6-0.1,0.7-0.1l0,0l0,0c1.1,0,1.7-0.6,1.7-1.7l0,0v-1.1l0,0c0-1.5-0.5-2.8-1.6-4l0,0l0,0
	C308.2,360.5,307,359.9,305.6,359.9z M299.2,375.4L299.2,375.4L299.2,375.4c0,2.2,1,4.1,3.1,5.7l0,0l0,0c1.5,1.2,3.5,1.8,5.8,1.8
	l0,0l0,0c1.1,0,2.7-0.3,4.8-0.9l0,0l0,0c2.1-0.6,3.3-0.9,3.6-0.9l0,0l0,0c1,0,1.5,0.5,1.5,1.6l0,0l0,0c0,1.3-1.3,2.5-3.9,3.9l0,0
	l0,0c-2.6,1.3-5.3,1.9-8.1,1.9l0,0h-1.4l0,0c0,0-0.1,0-0.2,0l0,0l0,0c-1.8,0-3.6-0.4-5.4-1.1l0,0l0,0c-3.6-1.4-6.2-3.8-7.7-7.3l0,0
	l0,0c-1-2.4-1.6-4.7-1.6-6.8l0,0v-1.5l0,0c0-2.2,0.4-4.3,1.1-6.4l0,0l0,0c1.4-3.9,4-6.6,7.6-8.3l0,0l0,0c2.2-1,4.5-1.5,6.9-1.5l0,0
	h0.8l0,0c3.6,0,6.6,1.1,9,3.3l0,0l0,0c1.3,1.2,2.3,2.6,3,4.3l0,0l0,0c0.7,1.7,1,3.3,1,5.1l0,0l0,0c0,1.7-0.8,2.8-2.5,3.4l0,0l0,0
	c-2.4,0.8-6.7,1.1-13.1,1.1l0,0l0,0c-1.7,0-2.8,0.2-3.4,0.6l0,0l0,0C299.5,373.7,299.2,374.4,299.2,375.4z M339.7,359.2L339.7,359.2
	c2.5-1.7,4.7-2.6,6.5-2.6l0,0l0,0c1.8,0,3,0.4,3.6,1.1l0,0l0,0c0.6,0.8,1,1.7,1,2.8l0,0l0,0c0,1.1-0.3,2-0.9,2.9l0,0l0,0
	c-0.6,0.8-1.2,1.3-2,1.3l0,0l0,0c-0.7,0-1.7-0.3-3-0.9l0,0l0,0c-1.3-0.6-2.3-0.9-3-0.9l0,0l0,0c-0.7,0-1.5,0.4-2.4,1.1l0,0l0,0
	c-0.9,0.7-1.5,1.8-1.8,3.2l0,0l0,0c-0.3,1.4-0.5,3.5-0.5,6.5l0,0l0,0c0,2.9,0.2,4.8,0.6,5.7l0,0l0,0c0.4,0.9,1.3,2,2.6,3.4l0,0l0,0
	c1.3,1.4,1.9,2.5,1.9,3.4l0,0l0,0c0,1-2.5,1.6-7.6,1.6l0,0H332l-0.7,0l0,0c-0.5,0-0.9,0-1.4,0l0,0l-0.7,0l0,0c-0.5,0-0.9,0-1.4,0
	l0,0l0,0c-2.3,0-3.4-0.5-3.4-1.5l0,0l0,0c0-1,0.6-2,1.7-3l0,0l0,0c1.1-1,1.8-1.9,2.1-2.7l0,0l0,0c0.3-0.8,0.4-3.6,0.4-8.3l0,0l0,0
	c0-4.7-0.1-7.6-0.4-8.5l0,0l0,0c-0.3-0.9-1-1.7-2.1-2.4l0,0l0,0c-1.1-0.7-1.7-1.4-1.7-2.1l0,0l0,0c0-1,0.8-1.7,2.3-2.1l0,0l0,0
	c2.3-0.6,4.3-0.9,6.1-0.9l0,0l0,0c1.8,0,3.1,0.2,3.7,0.6l0,0l0,0c0.3,0.2,0.6,0.7,0.9,1.7l0,0l0,0c0.3,0.9,0.7,1.4,1.2,1.4l0,0l0,0
	C338.7,359.8,339.1,359.6,339.7,359.2L339.7,359.2z"/>
<path fill="#71DB77" d="M239.4,411.7l2.4-7.1h1.9l-4,11.4h-2l-4-11.4h1.9l2.4,7.1l0,0c0.1,0.3,0.3,0.8,0.4,1.3l0,0l0,0
	c0.1,0.5,0.2,0.9,0.3,1.2l0,0l0,0c0.1-0.4,0.2-0.9,0.3-1.4l0,0l0,0C239.2,412.3,239.3,411.9,239.4,411.7L239.4,411.7z M256.2,410.3
	L256.2,410.3L256.2,410.3c0,1.9-0.5,3.3-1.4,4.3l0,0l0,0c-0.9,1-2.2,1.5-3.9,1.5l0,0l0,0c-1.7,0-3-0.5-4-1.5l0,0l0,0
	c-0.9-1-1.4-2.5-1.4-4.4l0,0l0,0c0-1.9,0.5-3.3,1.4-4.3l0,0l0,0c0.9-1,2.3-1.5,4-1.5l0,0l0,0c1.7,0,3,0.5,3.9,1.5l0,0l0,0
	C255.7,407,256.2,408.4,256.2,410.3z M247.5,410.3L247.5,410.3L247.5,410.3c0,1.4,0.3,2.5,0.8,3.2l0,0l0,0c0.6,0.7,1.4,1.1,2.5,1.1
	l0,0l0,0c1.1,0,1.9-0.4,2.5-1.1l0,0l0,0c0.6-0.7,0.9-1.8,0.9-3.2l0,0l0,0c0-1.4-0.3-2.5-0.8-3.2l0,0l0,0c-0.6-0.7-1.4-1.1-2.5-1.1
	l0,0l0,0c-1.1,0-2,0.4-2.5,1.1l0,0l0,0C247.8,407.8,247.5,408.9,247.5,410.3z M266.2,412.9L266.2,412.9L266.2,412.9
	c0,1-0.4,1.8-1.1,2.4l0,0l0,0c-0.7,0.6-1.7,0.9-3,0.9l0,0l0,0c-1.3,0-2.3-0.2-3.2-0.6l0,0v-1.8l0,0c0.5,0.2,1.1,0.4,1.7,0.6l0,0l0,0
	c0.6,0.1,1.1,0.2,1.6,0.2l0,0l0,0c0.7,0,1.3-0.1,1.6-0.4l0,0l0,0c0.3-0.3,0.5-0.7,0.5-1.1l0,0l0,0c0-0.4-0.2-0.8-0.5-1.1l0,0l0,0
	c-0.3-0.3-1-0.7-2-1.1l0,0l0,0c-1-0.4-1.8-0.9-2.2-1.4l0,0l0,0c-0.4-0.5-0.6-1.2-0.6-2l0,0l0,0c0-1,0.3-1.7,1-2.3l0,0l0,0
	c0.7-0.5,1.6-0.8,2.7-0.8l0,0l0,0c1.1,0,2.2,0.2,3.3,0.7l0,0l-0.6,1.5l0,0c-1-0.4-1.9-0.6-2.7-0.6l0,0l0,0c-0.6,0-1.1,0.1-1.4,0.4
	l0,0l0,0c-0.3,0.3-0.5,0.6-0.5,1l0,0l0,0c0,0.3,0.1,0.6,0.2,0.8l0,0l0,0c0.1,0.2,0.3,0.4,0.6,0.6l0,0l0,0c0.3,0.2,0.8,0.4,1.5,0.8
	l0,0l0,0c0.8,0.3,1.5,0.7,1.8,1l0,0l0,0c0.4,0.3,0.7,0.6,0.9,1l0,0l0,0C266.1,412,266.2,412.4,266.2,412.9z"/>
</svg>
