<?xml version="1.0" encoding="utf-8"?>
<!-- Generator: Adobe Illustrator 23.0.3, SVG Export Plug-In . SVG Version: 6.00 Build 0)  -->
<svg version="1.2" baseProfile="tiny" id="Layer_1" xmlns="http://www.w3.org/2000/svg" xmlns:xlink="http://www.w3.org/1999/xlink"
	 x="0px" y="0px" viewBox="0 0 100 100" xml:space="preserve">
<g>
	<path fill="#71DB77" d="M85.8,30.7L60.6,11.1c-1.6-1.2-3.9-2-6.2-2c-1.3,0-2.5,0.2-3.5,0.6L21.4,21.9c-3,1.2-5.5,4.5-6,7.7
		l-4.3,31.6c-0.4,3.2,1.2,7.1,3.7,9L40,89.9c1.6,1.2,3.9,2,6.2,2c1.3,0,2.5-0.2,3.5-0.6l29.5-12.1c3-1.2,5.5-4.5,6-7.7l4.3-31.6
		C89.9,36.5,88.4,32.7,85.8,30.7z M58,38.1l-3.2,23.4L36.2,47L55,39.3L58,38.1z M23.5,27.2L53,15.1c0.3-0.1,0.8-0.2,1.3-0.2
		c1,0,2.1,0.3,2.7,0.8l3.7,2.9l-1.7,13L18.6,48.1L21,30.4C21.2,29.2,22.4,27.6,23.5,27.2z M47.5,85.9c-0.3,0.1-0.8,0.2-1.3,0.2
		c-1,0-2.1-0.3-2.7-0.8L18.2,65.8c-0.9-0.7-1.7-2.6-1.6-3.8l1-7.5l12.3-5l25,19.4l11.7,9.1L47.5,85.9z M83.9,39l-4.3,31.6
		c-0.2,1.2-1.4,2.8-2.5,3.2l-4.3,1.7l-12.5-9.8L66,22.5l16.4,12.7C83.3,35.9,84.1,37.8,83.9,39z"/>
</g>
</svg>
